<svg width="180" height="180" viewBox="0 0 180 180" fill="none" xmlns="http://www.w3.org/2000/svg">
<circle cx="90" cy="90" r="90" fill="#B9B9B9"/>
<path fill-rule="evenodd" clip-rule="evenodd" d="M101.43 90.36C115.419 90.36 126.75 79.0293 126.75 65.04C126.75 51.0507 115.419 39.72 101.43 39.72C87.4408 39.72 76.1101 51.0507 76.1101 65.04C76.1101 79.0293 87.4408 90.36 101.43 90.36ZM44.4601 77.7V65.04C44.4601 61.5585 41.6116 58.71 38.1301 58.71C34.6486 58.71 31.8001 61.5585 31.8001 65.04V77.7H19.1401C15.6586 77.7 12.8101 80.5485 12.8101 84.03C12.8101 87.5115 15.6586 90.36 19.1401 90.36H31.8001V103.02C31.8001 106.501 34.6486 109.35 38.1301 109.35C41.6116 109.35 44.4601 106.501 44.4601 103.02V90.36H57.1201C60.6016 90.36 63.4501 87.5115 63.4501 84.03C63.4501 80.5485 60.6016 77.7 57.1201 77.7H44.4601ZM101.43 103.02C84.529 103.02 50.7901 111.502 50.7901 128.34V134.67C50.7901 138.151 53.6386 141 57.1201 141H145.74C149.222 141 152.07 138.151 152.07 134.67V128.34C152.07 111.502 118.331 103.02 101.43 103.02Z" fill="#282C50"/>
</svg>
