<svg width="72" height="72" viewBox="0 0 72 72" fill="none" xmlns="http://www.w3.org/2000/svg">
<path d="M57.443 64.8683C50.3776 70.1174 41.6334 72.5949 32.8646 71.8319C24.0959 71.069 15.9108 67.1186 9.85819 60.7281C3.80553 54.3376 0.305041 45.9503 0.0190191 37.153C-0.267003 28.3558 2.68128 19.7588 8.30605 12.9887C13.9308 6.21852 21.8419 1.74477 30.5426 0.413842C39.2433 -0.917082 48.13 0.987146 55.5215 5.76624C62.9129 10.5453 68.2963 17.8678 70.6532 26.3483C73.0101 34.8287 72.3005 43.98 68.3115 51.7866L63.3312 49.6575C66.6026 42.9652 67.3196 35.0062 65.325 27.8291C63.3303 20.652 58.7742 14.4549 52.5187 10.4103C46.2633 6.36569 38.7423 4.75412 31.3788 5.8805C24.0153 7.00688 17.3201 10.7931 12.5598 16.5227C7.79944 22.2524 5.30428 29.5281 5.54634 36.9733C5.78841 44.4185 8.75091 51.5168 13.8734 56.9252C18.9958 62.3335 25.9229 65.6768 33.344 66.3225C40.7651 66.9682 48.1655 64.8715 54.145 60.4291L57.443 64.8683Z" fill="#1C7E75"/>
<path d="M54.6946 36.7037C54.6946 46.6403 46.6394 54.6956 36.7028 54.6956C26.7661 54.6956 18.7109 46.6403 18.7109 36.7037C18.7109 26.7671 26.7661 18.7119 36.7028 18.7119C46.6394 18.7119 54.6946 26.7671 54.6946 36.7037ZM24.5468 36.7037C24.5468 43.4173 29.9892 48.8597 36.7028 48.8597C43.4163 48.8597 48.8587 43.4173 48.8587 36.7037C48.8587 29.9902 43.4163 24.5478 36.7028 24.5478C29.9892 24.5478 24.5468 29.9902 24.5468 36.7037Z" fill="#1C7E75"/>
<rect x="48.9375" y="18.7119" width="5.75738" height="30.2263" fill="#1C7E75"/>
<path d="M48.9375 48.2188C48.9375 50.1081 49.7975 51.9352 51.3622 53.3699C52.9269 54.8046 55.0931 55.7522 57.4693 56.0417C59.8456 56.3312 62.3926 56.0654 64.4702 55.142C65.9695 54.4757 67.802 52.9764 68.6202 51.1446L63.331 49.6581C62.8042 50.4775 62.6377 50.8107 61.3049 51.3104C60.4162 51.7431 59.375 51.7459 58.3418 51.6201C57.3086 51.4942 56.3668 51.0822 55.6865 50.4584C55.0062 49.8346 54.6323 49.0402 54.6323 48.2188L48.9375 48.2188Z" fill="#1C7E75"/>
</svg>
