<svg width="21" height="40" viewBox="0 0 21 40" fill="none" xmlns="http://www.w3.org/2000/svg">
<path d="M0.645161 21.304H5.02981V39.3548C5.02981 39.7112 5.31858 40 5.67497 40H13.1093C13.4657 40 13.7545 39.7112 13.7545 39.3548V21.389H18.795C19.1227 21.389 19.3984 21.1431 19.4359 20.8175L20.2014 14.1721C20.2225 13.9893 20.1645 13.8062 20.0422 13.669C19.9197 13.5317 19.7445 13.4532 19.5606 13.4532H13.7547V9.28748C13.7547 8.03174 14.4308 7.39497 15.7645 7.39497C15.9546 7.39497 19.5606 7.39497 19.5606 7.39497C19.917 7.39497 20.2058 7.10606 20.2058 6.74981V0.649935C20.2058 0.293548 19.917 0.00477419 19.5606 0.00477419H14.329C14.2921 0.00296774 14.2102 0 14.0894 0C13.1817 0 10.0265 0.178193 7.53406 2.4711C4.77251 5.012 5.15639 8.05432 5.24813 8.58181V13.453H0.645161C0.288774 13.453 0 13.7418 0 14.0982V20.6587C0 21.0151 0.288774 21.304 0.645161 21.304Z" fill="current"/>
</svg>
