<svg width="51" height="100" viewBox="0 0 51 100" fill="none" xmlns="http://www.w3.org/2000/svg">
<path d="M1.6129 53.26H12.5745V98.3871C12.5745 99.2781 13.2964 100 14.1874 100H32.7732C33.6642 100 34.3861 99.2781 34.3861 98.3871V53.4726H46.9874C47.8068 53.4726 48.4961 52.8577 48.5897 52.0439L50.5035 35.4303C50.5561 34.9732 50.4113 34.5155 50.1055 34.1726C49.7994 33.8294 49.3613 33.6329 48.9016 33.6329H34.3868V23.2187C34.3868 20.0794 36.0771 18.4874 39.4113 18.4874C39.8865 18.4874 48.9016 18.4874 48.9016 18.4874C49.7926 18.4874 50.5145 17.7652 50.5145 16.8745V1.62484C50.5145 0.733871 49.7926 0.0119355 48.9016 0.0119355H35.8226C35.7303 0.00741935 35.5255 0 35.2235 0C32.9542 0 25.0661 0.445483 18.8352 6.17774C11.9313 12.53 12.891 20.1358 13.1203 21.4545V33.6326H1.6129C0.721935 33.6326 0 34.3545 0 35.2455V51.6468C0 52.5377 0.721935 53.26 1.6129 53.26Z" fill="#B9B9B9"/>
</svg>
