<svg width="87" height="100" viewBox="0 0 87 100" fill="none" xmlns="http://www.w3.org/2000/svg">
<path d="M59.6768 5.65108C50.707 3.56712 41.3783 3.56712 32.4084 5.65116C27.2277 2.47112 23.2689 1.01182 20.3917 0.396991C18.8275 0.0626789 17.5876 -0.0208439 16.655 0.00411025C16.1897 0.0165139 15.8045 0.0558531 15.4977 0.103119C15.3444 0.126679 15.2113 0.152146 15.098 0.176954C15.0413 0.189357 14.9897 0.201615 14.943 0.213431L14.8768 0.230679L14.8466 0.238972L14.8322 0.243009L14.8182 0.246973C14.815 0.248367 14.8305 0.290055 15.8264 3.77211L14.8182 0.246973C13.7758 0.545028 12.9185 1.28888 12.4765 2.27883C11.2423 5.04235 10.5682 8.02319 10.4932 11.0489C10.4374 13.2974 10.7133 15.5375 11.3085 17.6978C9.74444 19.5923 8.47009 21.7137 7.53109 23.9932C6.29865 26.9852 5.66819 30.1908 5.67582 33.4267C5.67677 44.8216 9.03854 52.4831 14.7676 57.406C18.7815 60.8553 23.6611 62.6905 28.5471 63.7416C27.7403 65.9831 27.5309 68.3545 27.6942 70.7714V75.1618C24.7044 75.7908 22.64 75.5919 21.1682 75.1061C19.3188 74.4954 17.901 73.2683 16.5486 71.5046C15.8636 70.6121 15.2325 69.6316 14.5698 68.5585L14.1492 67.8738C13.6302 67.0261 13.0702 66.1123 12.505 65.2785C11.1045 63.2132 9.00703 61.588 5.65892 60.7089H3.85836L2.31501 61.1592L1.28612 61.7378L0.771671 61.9951L0.257224 62.5095L0 63.2812L0.257224 63.7956L0.771671 64.5673L1.54334 65.2785C2.12646 65.4319 5.17718 67.5494 6.43039 69.3974C6.89087 70.0763 7.33013 70.7934 7.83171 71.6117C7.98921 71.8686 8.15325 72.1365 8.32566 72.4161C9.01454 73.531 9.80463 74.7721 10.7252 75.9721C12.5838 78.3949 15.1143 80.8367 18.868 82.0756C21.4472 82.927 24.3624 83.131 27.6942 82.6194V96.3303C27.6942 98.3567 29.3372 100 31.3639 100H60.7217C62.7485 100 64.3914 98.3567 64.3914 96.3303V70.1835C64.3914 67.8657 64.2905 65.7468 63.6382 63.7695C68.4994 62.7436 73.3405 60.9066 77.3281 57.4546C83.055 52.4971 86.4099 44.7666 86.4099 33.3028V33.2909C86.3916 27.5752 84.3857 22.0695 80.7769 17.698C81.3721 15.5376 81.6481 13.2975 81.5923 11.0489C81.5174 8.02319 80.8437 5.04235 79.6092 2.27883C79.1666 1.28859 78.3094 0.54466 77.2664 0.246679L76.2587 3.77519C77.2664 0.246678 77.2561 0.243743 77.2525 0.242715L77.2385 0.238679L77.2077 0.230458L77.1417 0.213211C77.0954 0.201468 77.0433 0.189211 76.9868 0.176808C76.8738 0.152 76.7409 0.126605 76.5875 0.103046C76.2807 0.055853 75.8954 0.0165139 75.4301 0.00411025C74.4972 -0.0208439 73.2569 0.0626788 71.6921 0.396917C68.8143 1.01182 64.8561 2.47105 59.6768 5.65108Z" fill="#B9B9B9"/>
</svg>
