<svg width="180" height="180" viewBox="0 0 180 180" fill="none" xmlns="http://www.w3.org/2000/svg">
<path d="M90.0007 0C40.3012 0 0 41.3135 0 92.2785C0 133.05 25.788 167.64 61.548 179.841C66.046 180.696 67.6973 177.84 67.6973 175.402C67.6973 173.202 67.6138 165.933 67.5751 158.222C42.5368 163.804 37.2534 147.334 37.2534 147.334C33.1593 136.668 27.2604 133.832 27.2604 133.832C19.0947 128.105 27.876 128.222 27.876 128.222C36.9136 128.873 41.6724 137.732 41.6724 137.732C49.6995 151.839 62.7269 147.761 67.8627 145.403C68.6705 139.439 71.0029 135.368 73.5768 133.063C53.5864 130.73 32.5721 122.818 32.5721 87.4589C32.5721 77.3842 36.0879 69.1524 41.8453 62.6901C40.9108 60.3658 37.8302 50.9803 42.7171 38.2696C42.7171 38.2696 50.2748 35.7895 67.4737 47.7285C74.6529 45.6839 82.3521 44.6586 90.0007 44.6234C97.6493 44.6586 105.355 45.6839 112.547 47.7285C129.725 35.7895 137.272 38.2696 137.272 38.2696C142.171 50.9803 139.089 60.3658 138.155 62.6901C143.925 69.1524 147.417 77.3842 147.417 87.4589C147.417 122.902 126.363 130.706 106.322 132.99C109.55 135.854 112.426 141.469 112.426 150.079C112.426 162.426 112.322 172.363 112.322 175.402C112.322 177.858 113.942 180.735 118.504 179.829C154.245 167.614 180 133.036 180 92.2785C180 41.3135 139.705 0 90.0007 0ZM33.7082 131.453C33.51 131.911 32.8065 132.049 32.1657 131.734C31.5129 131.433 31.1463 130.808 31.3579 130.348C31.5516 129.876 32.2566 129.744 32.9079 130.061C33.5621 130.362 33.9347 130.993 33.7082 131.453ZM38.1352 135.503C37.706 135.911 36.8669 135.721 36.2976 135.077C35.7089 134.433 35.5986 133.573 36.0338 133.159C36.4765 132.751 37.2902 132.942 37.8804 133.585C38.4691 134.236 38.5838 135.09 38.1352 135.503ZM41.1724 140.685C40.6209 141.078 39.7192 140.709 39.1618 139.889C38.6104 139.068 38.6104 138.084 39.1738 137.69C39.7327 137.296 40.6209 137.65 41.1858 138.465C41.7357 139.299 41.7357 140.283 41.1724 140.685ZM46.3088 146.686C45.8155 147.244 44.7647 147.094 43.9957 146.333C43.2088 145.589 42.9897 144.533 43.4845 143.976C43.9838 143.416 45.0405 143.574 45.8155 144.329C46.5964 145.071 46.8349 146.135 46.3088 146.686ZM52.9471 148.713C52.7295 149.435 51.7175 149.764 50.6981 149.457C49.6802 149.14 49.014 148.294 49.2197 147.563C49.4313 146.836 50.4477 146.494 51.4746 146.822C52.491 147.137 53.1587 147.978 52.9471 148.713ZM60.5018 149.572C60.5271 150.333 59.6627 150.964 58.5926 150.978C57.5165 151.002 56.6462 150.386 56.6342 149.638C56.6342 148.869 57.4793 148.244 58.5553 148.226C59.6254 148.204 60.5018 148.816 60.5018 149.572ZM67.9234 149.28C68.0516 150.023 67.3079 150.785 66.2452 150.989C65.2005 151.184 64.2332 150.726 64.1006 149.989C63.9709 149.228 64.728 148.466 65.7713 148.269C66.8354 148.079 67.7878 148.525 67.9234 149.28Z" fill="#B9B9B9"/>
</svg>
