<svg width="41" height="40" viewBox="0 0 41 40" fill="none" xmlns="http://www.w3.org/2000/svg">
<path d="M5.13641 0H34.8692C37.6939 0 40.0032 2.31005 40.0032 5.13481V34.8676C40.0032 37.6915 37.6939 40 34.8692 40H5.13641C2.31165 40 0 37.6914 0 34.8676V5.13481C0 2.31005 2.31165 0 5.13641 0ZM29.1418 4.44262C28.15 4.44262 27.341 5.25482 27.341 6.2461V10.555C27.341 11.5467 28.15 12.357 29.1418 12.357H33.6626C34.6528 12.357 35.4635 11.5467 35.4635 10.555V6.2461C35.4635 5.25482 34.6528 4.44262 33.6626 4.44262H29.1418ZM35.4807 16.9155H31.961C32.2947 18.0056 32.4757 19.1551 32.4757 20.3503C32.4757 27.0018 26.9064 32.3966 20.0392 32.3966C13.1737 32.3966 7.60434 27.0018 7.60434 20.3503C7.60434 19.1551 7.78702 18.0056 8.11918 16.9155H4.44702V33.8144C4.44702 34.6896 5.16161 35.4015 6.03595 35.4015H33.8924C34.7676 35.4015 35.4807 34.6896 35.4807 33.8144V16.9155ZM20.0393 12.1298C15.6043 12.1298 12.0067 15.6138 12.0067 19.9155C12.0067 24.2127 15.6043 27.6994 20.0393 27.6994C24.4768 27.6994 28.0745 24.2127 28.0745 19.9155C28.0745 15.6136 24.4768 12.1298 20.0393 12.1298Z" fill="#3F4456"/>
</svg>
