<svg width="41" height="40" viewBox="0 0 41 40" fill="none" xmlns="http://www.w3.org/2000/svg">
<path d="M9.33107 12.8525H1.2833C0.92613 12.8525 0.636719 13.1421 0.636719 13.4991V39.3532C0.636719 39.7103 0.92613 39.9997 1.2833 39.9997H9.33107C9.68825 39.9997 9.97766 39.7103 9.97766 39.3532V13.4991C9.97766 13.1421 9.68825 12.8525 9.33107 12.8525Z" fill="current"/>
<path d="M5.31052 0C2.38227 0 0 2.37969 0 5.3047C0 8.23101 2.38227 10.6116 5.31052 10.6116C8.23644 10.6116 10.6168 8.23088 10.6168 5.3047C10.6169 2.37969 8.23644 0 5.31052 0Z" fill="current"/>
<path d="M29.8017 12.21C26.5694 12.21 24.18 13.5995 22.7308 15.1783V13.4991C22.7308 13.1421 22.4414 12.8525 22.0842 12.8525H14.3771C14.0199 12.8525 13.7305 13.1421 13.7305 13.4991V39.3532C13.7305 39.7103 14.0199 39.9997 14.3771 39.9997H22.4072C22.7644 39.9997 23.0538 39.7103 23.0538 39.3532V26.5614C23.0538 22.2509 24.2247 20.5716 27.2295 20.5716C30.5019 20.5716 30.762 23.2637 30.762 26.7832V39.3533C30.762 39.7105 31.0514 39.9999 31.4086 39.9999H39.4417C39.7989 39.9999 40.0883 39.7105 40.0883 39.3533V25.1719C40.0883 18.7623 38.8662 12.21 29.8017 12.21Z" fill="current"/>
</svg>
