<svg width="69" height="100" viewBox="0 0 69 100" fill="none" xmlns="http://www.w3.org/2000/svg">
<path fill-rule="evenodd" clip-rule="evenodd" d="M18.2336 0H50.1424C60.2124 0 68.3761 8.14027 68.3761 18.1818C68.3761 25.0273 64.5821 30.9893 58.9766 34.0909C64.5821 37.1925 68.3761 43.1545 68.3761 50C68.3761 60.0414 60.2124 68.1818 50.1424 68.1818C44.6965 68.1818 39.8081 65.8009 36.4672 62.0264V81.8182C36.4672 91.8595 28.3036 100 18.2336 100C8.16346 100 0 91.8595 0 81.8182C0 74.9727 3.79391 69.0109 9.39943 65.9091C3.79391 62.8073 0 56.8455 0 50C0 43.1545 3.79391 37.1925 9.39943 34.0909C3.79391 30.9893 0 25.0273 0 18.1818C0 8.14027 8.16346 0 18.2336 0ZM63.8177 18.1818C63.8177 25.713 57.6953 31.8182 50.1424 31.8182H36.4672V4.54545H50.1424C57.6953 4.54545 63.8177 10.6507 63.8177 18.1818ZM31.9088 36.3636V63.6364H18.2336C10.681 63.6364 4.5584 57.5314 4.5584 50C4.5584 42.4686 10.681 36.3636 18.2336 36.3636H31.9088ZM50.1424 36.3636C42.5896 36.3636 36.4672 42.4686 36.4672 50C36.4672 57.5314 42.5896 63.6364 50.1424 63.6364C57.6953 63.6364 63.8177 57.5314 63.8177 50C63.8177 42.4686 57.6953 36.3636 50.1424 36.3636ZM31.9088 68.1818H18.2336C10.681 68.1818 4.5584 74.2868 4.5584 81.8182C4.5584 89.3495 10.681 95.4545 18.2336 95.4545C25.7864 95.4545 31.9088 89.3495 31.9088 81.8182V68.1818ZM31.9088 31.8182H18.2336C10.681 31.8182 4.5584 25.713 4.5584 18.1818C4.5584 10.6507 10.681 4.54545 18.2336 4.54545H31.9088V31.8182Z" fill="#3F4456"/>
</svg>
