<svg width="99" height="100" viewBox="0 0 99 100" fill="none" xmlns="http://www.w3.org/2000/svg">
<path d="M3.30001 3.33333V0C2.37716 0 1.49646 0.390332 0.871598 1.0763C0.246728 1.76227 -0.0652288 2.6812 0.0114095 3.61015L3.30001 3.33333ZM95.6998 3.33333L98.9886 3.61015C99.0653 2.6812 98.753 1.76227 98.128 1.0763C97.5036 0.390332 96.6225 0 95.6998 0V3.33333ZM89.0999 83.3333L90.1433 86.4953C91.396 86.074 92.279 84.9386 92.3885 83.61L89.0999 83.3333ZM49.4999 96.6666L48.4564 99.8286C49.1338 100.057 49.8661 100.057 50.5434 99.8286L49.4999 96.6666ZM9.89999 83.3333L6.61141 83.61C6.72104 84.9386 7.60412 86.074 8.85647 86.4953L9.89999 83.3333ZM29.7 23.3333L29.7 21L27.5 21L27.5 23.3333L29.7 23.3333ZM29.7 43.3334L27.5 43.3334L27.5 46.6667L29.7 46.6667V43.3334ZM69.2999 43.3334L71.5 43.3334L71.5 41L69.2999 41L69.2999 43.3334ZM69.2999 63.3333L70.3433 66.4956L71.5 66L71.5 63.3333L69.2999 63.3333ZM49.4999 70L48.4564 73.162L49.4999 73.5133L50.5434 73.162L49.4999 70ZM29.7 63.3333L27.5 63.3333L27.5 66L28.6564 66.4956L29.7 63.3333ZM3.30001 5H95.6998V0H3.30001V5ZM94.05 3L87.5 83.5L92.3885 83.61L98.9886 3.61015L94.05 3ZM88.5936 81.8286L48.4564 95L50.5434 99.8286L90.1433 86.4953L88.5936 81.8286ZM50.5 95L10 82L8.85647 86.4953L48.4564 99.8286L50.5 95ZM11.6481 83.3333L5 3L0.0114095 3.61015L6.61141 83.61L11.6481 83.3333ZM71.5 21L29.7 21L29.7 26.6666L71.5 26.6666L71.5 21ZM27.5 23.3333L27.5 43.3334L33 43.3334V23.3333L27.5 23.3333ZM29.7 46.6667H69.2999L69.2999 41L29.7 41L29.7 46.6667ZM65.9999 43.3334V63.3333L71.5 63.3333L71.5 43.3334L65.9999 43.3334ZM69 61.5L48.5 68L50.5434 73.162L70.3433 66.4956L69 61.5ZM50.5 68L30 61.5L28.6564 66.4956L48.4564 73.162L50.5 68ZM33 63.3333V53.3333L27.5 53.3333V63.3333L33 63.3333Z" fill="#1C7E75"/>
</svg>
