<svg width="166" height="100" viewBox="0 0 166 100" fill="none" xmlns="http://www.w3.org/2000/svg">
<path d="M39.1119 26.0814H70.3754V28.5663H41.9777V47.2681H68.682V49.753H41.9777V70.2858H70.7011V72.7707H39.1119V26.0814ZM73.1761 26.0814H76.4978L91.2177 46.6142L106.263 26.0814L126.728 0L93.1065 48.7721L110.432 72.7707H106.98L91.2177 50.9301L75.3906 72.7707H72.0037L89.4591 48.7721L73.1761 26.0814ZM111.669 28.5663V26.0814H147.297V28.5663H130.883V72.7707H128.017V28.5663H111.669ZM0 26.0814H3.58227L52.9797 100L32.5661 72.7707L2.99608 29.6125L2.86582 72.7707H0V26.0814ZM147.008 69.536C146.422 69.536 145.983 69.0823 145.983 68.496C145.983 67.9098 146.422 67.4561 147.008 67.4561C147.6 67.4561 148.032 67.9098 148.032 68.496C148.032 69.0823 147.6 69.536 147.008 69.536ZM149.824 66.8H151.357C151.378 67.6306 151.985 68.1889 152.877 68.1889C153.874 68.1889 154.438 67.5887 154.438 66.465V59.346H156V66.472C156 68.496 154.829 69.6616 152.891 69.6616C151.072 69.6616 149.824 68.5309 149.824 66.8ZM158.042 66.7093H159.589C159.722 67.6655 160.656 68.2727 162.001 68.2727C163.256 68.2727 164.176 67.6236 164.176 66.7302C164.176 65.9625 163.59 65.5019 162.259 65.1878L160.962 64.8737C159.143 64.448 158.314 63.5686 158.314 62.0889C158.314 60.2952 159.777 59.1017 161.973 59.1017C164.015 59.1017 165.507 60.2952 165.598 61.9912H164.078C163.932 61.063 163.123 60.4837 161.952 60.4837C160.718 60.4837 159.896 61.0769 159.896 61.9842C159.896 62.7031 160.426 63.1149 161.736 63.422L162.844 63.6942C164.908 64.1758 165.758 65.0133 165.758 66.5278C165.758 68.4542 164.266 69.6616 161.883 69.6616C159.652 69.6616 158.153 68.51 158.042 66.7093Z" fill="#1C7E75"/>
</svg>
