<svg width="100" height="100" viewBox="0 0 100 100" fill="none" xmlns="http://www.w3.org/2000/svg">
<path d="M97.6221 40.6476C100.087 50.2504 89.4965 61.496 76.2502 58.3098C93.1219 46.0388 85.4082 30.3205 76.4914 22.7802C66.8228 14.6021 76.1828 11.9821 79.3013 14.9427C79.2261 8.96933 58.1945 10.3193 76.5904 29.501C86.0417 39.3532 74.8924 61.1476 61.6105 44.5745C61.5006 44.4239 61.4017 44.2669 61.3137 44.1035C63.4585 43.2128 65.2199 40.7901 65.2199 36.8001C65.2404 35.3876 64.9597 33.987 64.3965 32.6915C65.9321 29.5644 67.3412 25.8282 67.3412 21.1495C67.3412 9.96653 60.0863 0 49.9271 0C39.7672 0 32.5131 9.96692 32.5131 21.1491C32.5131 25.8278 33.9261 29.5684 35.4613 32.6954C34.8959 33.9931 34.6153 35.3969 34.6383 36.8123C34.6383 40.8018 36.3954 43.2246 38.5445 44.1153C38.455 44.2792 38.3547 44.4362 38.2438 44.5863C24.9615 61.1593 13.8091 39.3614 23.2639 29.5128C41.6633 10.331 20.6238 8.98538 20.5487 14.9545C23.6675 11.9977 33.0315 14.6178 23.3586 22.7919C14.4421 30.3126 6.73625 46.0349 23.6002 58.3216C10.3574 61.5081 -0.22928 50.2625 2.22829 40.6597C-2.06981 48.5762 1.11637 63.5464 18.178 66.4362C0.0158115 70.6043 5.48143 95.6839 18.2692 91.67C7.30199 91.0248 8.52119 78.4018 12.9579 74.6021C17.8656 70.3945 24.0712 73.359 35.3865 71.4629C35.2635 81.6518 45.1858 87.1261 39.9814 92.9605C34.468 99.1355 26.9207 92.466 28.0842 86.3978C22.8207 97.2911 37.8084 105.96 44.3785 93.3089C49.4405 83.5758 35.9883 65.9965 49.9193 65.9965C63.8504 65.9965 50.3942 83.5558 55.4601 93.3089C62.0298 105.975 77.018 97.2907 71.754 86.3978C72.9058 92.4699 65.3702 99.1355 59.8612 92.9605C54.6802 87.1104 64.5751 81.6358 64.4678 71.4473C75.7788 73.3434 81.9848 70.3745 86.8886 74.5861C91.3331 78.3862 92.548 91.0092 81.5811 91.6544C94.3885 95.6839 99.8502 70.6 81.6802 66.4201C98.7301 63.5346 101.92 48.5602 97.6221 40.6476Z" fill="#1C7E75"/>
<path d="M13.1672 75.3612C18.071 71.1536 23.703 74.8346 35.3977 71.4464C35.3977 71.4464 35.5602 68.3194 35.7109 66C32.1489 68.6835 25.6344 68.335 20.1965 69.131C2.2994 71.7553 6.27293 93.2525 18.2691 91.6692C9.39178 90.2128 8.72698 79.1652 13.1676 75.3612" fill="#1C7E75"/>
<path d="M36.4008 59.9575C38.3799 56.8978 38.6254 51.9658 34.624 56.4506C21.1041 71.5989 -2.35343 59.2214 2.24144 40.6528C-2.70541 47.3701 -0.330842 64.9333 18.1912 66.4254C22.8416 64.8816 32.4155 66.0769 36.4008 59.9575Z" fill="#1C7E75"/>
<path d="M23.6095 58.3091C23.6095 58.3091 28.3586 57.8221 31.4379 54.204C18.9195 58.8592 8.64912 38.6677 24.3138 25.0198C36.496 14.419 24.0961 10.2395 20.5423 14.942C21.8523 13.6477 32.4668 14.3798 22.7943 22.5575C13.8931 30.0982 4.46181 45.7531 23.6095 58.3091Z" fill="#1C7E75"/>
<path d="M58.928 95.0046C53.7157 89.1702 58.928 83.9015 59.8857 74.7067C60.5192 68.5039 58.2037 61.644 49.9282 61.644C41.6526 61.644 39.3337 68.5156 39.9707 74.7067C40.9166 83.9015 46.1367 89.1702 40.9283 95.0046C35.4192 101.176 25.1172 94.7435 28.0931 86.3834C20.7678 98.5475 39.3611 106.12 45.9308 93.4726C50.9892 83.7355 35.9967 66.6712 49.9282 66.6712C63.8596 66.6712 48.8672 83.7355 53.9256 93.4726C60.4953 106.12 79.0847 98.5475 71.7593 86.3834C74.7313 94.7435 64.4371 101.172 58.928 95.0046Z" fill="#1C7E75"/>
<path d="M79.6745 69.1349C74.2328 68.3432 67.7144 68.6835 64.1602 66C64.3148 68.3194 64.4734 71.4503 64.4734 71.4503C76.1641 74.8346 81.7962 71.1497 86.6999 75.3612C91.1402 79.1613 90.4754 90.2128 81.5824 91.6535C93.5942 93.2525 97.5717 71.7553 79.6745 69.1349Z" fill="#1C7E75"/>
<path d="M97.6314 40.6489C102.226 59.2136 78.7688 71.599 65.2449 56.4428C61.2436 51.958 61.4773 56.8939 63.4721 59.9536C67.4574 66.073 77.0273 64.8777 81.6778 66.4215C100.204 64.9333 102.578 47.3662 97.6314 40.6489Z" fill="#1C7E75"/>
<path d="M68.4336 54.204C71.5129 57.822 76.2581 58.309 76.2581 58.309C95.4058 45.7687 85.9745 30.0942 77.0498 22.5574C67.373 14.3797 77.9875 13.6476 79.2975 14.942C75.7354 10.2394 63.3438 14.4193 75.526 25.0197C91.2181 38.6681 80.9481 58.8587 68.4336 54.204Z" fill="#1C7E75"/>
<path opacity="0.3" d="M55.0803 13.9117C55.0803 16.9992 49.9354 16.9992 49.9354 13.9117C49.9354 10.8241 55.0803 10.8281 55.0803 13.9117ZM46.979 16.738C46.979 18.8636 43.4448 18.8636 43.4448 16.738C43.4448 14.6125 46.979 14.6121 46.979 16.738ZM49.2349 6.96102C49.2349 9.09049 45.6968 9.09049 45.6968 6.96102C45.6968 4.83115 49.2349 4.85112 49.2349 6.96102ZM41.8654 22.0463C41.8654 23.1108 40.0965 23.1108 40.0965 22.0463C40.0965 20.9813 41.8654 20.9813 41.8654 22.0463ZM42.2021 11.5962C42.2021 13.0683 39.7559 13.0683 39.7559 11.5962C39.7559 10.1237 42.2021 10.1276 42.2021 11.5962ZM49.2349 24.5438C49.2349 26.0198 46.7891 26.0198 46.7891 24.5438C46.7891 23.0677 49.2349 23.0791 49.2349 24.5438Z" fill="#F8F8F8"/>
<path d="M43.6548 36.7996C43.6548 42.4128 37.291 42.4128 37.291 36.7996C37.291 31.1864 43.6548 31.1868 43.6548 36.7996Z" fill="#F8F8F8"/>
<path d="M41.4248 35.9351C41.4434 36.1423 41.4186 36.3512 41.352 36.5483C41.2855 36.7454 41.1786 36.9265 41.0382 37.0801C40.8977 37.2336 40.7269 37.3563 40.5365 37.4402C40.3461 37.5241 40.1403 37.5674 39.9322 37.5674C39.7241 37.5674 39.5183 37.5241 39.3279 37.4402C39.1375 37.3563 38.9667 37.2336 38.8263 37.0801C38.6858 36.9265 38.5789 36.7454 38.5124 36.5483C38.4458 36.3512 38.421 36.1423 38.4396 35.9351C38.421 35.7278 38.4458 35.519 38.5124 35.3219C38.5789 35.1247 38.6858 34.9436 38.8263 34.79C38.9667 34.6365 39.1375 34.5139 39.3279 34.43C39.5183 34.3461 39.7241 34.3027 39.9322 34.3027C40.1403 34.3027 40.3461 34.3461 40.5365 34.43C40.7269 34.5139 40.8977 34.6365 41.0382 34.79C41.1786 34.9436 41.2855 35.1247 41.352 35.3219C41.4186 35.519 41.4434 35.7278 41.4248 35.9351Z" fill="#1C7E75"/>
<path d="M62.5966 36.7996C62.5966 42.4128 56.2324 42.4128 56.2324 36.7996C56.2324 31.1864 62.5966 31.1868 62.5966 36.7996Z" fill="#F8F8F8"/>
<path d="M60.3487 36.2612C60.3672 36.4685 60.3424 36.6773 60.2759 36.8745C60.2093 37.0716 60.1024 37.2527 59.962 37.4063C59.8216 37.5598 59.6507 37.6824 59.4603 37.7663C59.2699 37.8502 59.0641 37.8936 58.856 37.8936C58.648 37.8936 58.4422 37.8502 58.2518 37.7663C58.0613 37.6824 57.8905 37.5598 57.7501 37.4063C57.6097 37.2527 57.5028 37.0716 57.4362 36.8745C57.3696 36.6773 57.3448 36.4685 57.3634 36.2612C57.3448 36.054 57.3696 35.8452 57.4362 35.648C57.5028 35.4509 57.6097 35.2698 57.7501 35.1162C57.8905 34.9627 58.0613 34.84 58.2518 34.7561C58.4422 34.6722 58.648 34.6289 58.856 34.6289C59.0641 34.6289 59.2699 34.6722 59.4603 34.7561C59.6507 34.84 59.8216 34.9627 59.962 35.1162C60.1024 35.2698 60.2093 35.4509 60.2759 35.648C60.3424 35.8452 60.3672 36.054 60.3487 36.2612Z" fill="#1C7E75"/>
<path d="M46.9737 47.9692C46.9737 51.1675 46.7086 53.7562 46.4036 53.7562C46.0986 53.7562 45.8536 51.1675 45.8575 47.9735C45.8614 44.7787 46.1225 42.186 46.4314 42.186C46.7403 42.186 46.9815 44.7708 46.9737 47.9692Z" fill="#F8F8F8"/>
<path d="M50.0447 54.7637C50.2765 54.7637 50.4644 51.7208 50.4644 47.9673C50.4644 44.2137 50.2765 41.1709 50.0447 41.1709C49.8129 41.1709 49.625 44.2137 49.625 47.9673C49.625 51.7208 49.8129 54.7637 50.0447 54.7637Z" fill="#F8F8F8"/>
<path d="M53.9986 47.896C53.9986 51.0152 53.7453 53.5445 53.4446 53.5445C53.1435 53.5445 52.918 51.0231 52.9219 47.8999C52.9258 44.7768 53.1831 42.2515 53.4759 42.2515C53.7688 42.2515 54.0104 44.7768 53.9986 47.896Z" fill="#F8F8F8"/>
</svg>
