<svg width="80" height="60" viewBox="0 0 80 60" fill="#1C7E75" xmlns="http://www.w3.org/2000/svg">
<path d="M68.8379 34.4914C68.9354 34.4889 69.0504 34.4864 69.1679 34.4864C71.253 34.4864 73.2255 34.9715 74.9756 35.8365L74.8981 35.8015C76.4932 36.579 77.8032 37.7291 78.7508 39.1391L78.7733 39.1741C79.5208 40.2642 79.9658 41.6117 79.9658 43.0618C79.9658 43.1668 79.9633 43.2718 79.9583 43.3743V43.3593C79.8808 44.8069 79.2233 46.0844 78.2133 46.9795L78.2083 46.9845C77.6557 47.527 76.9882 47.952 76.2457 48.222L76.2082 48.2345C75.7915 48.3178 75.5623 48.2553 75.5206 48.047C75.479 47.8387 75.6665 47.6095 76.0832 47.3595C77.2132 46.6744 78.0307 45.5694 78.3283 44.2668L78.3358 44.2343C78.3433 44.1293 78.3483 44.0068 78.3483 43.8818C78.3483 43.1043 78.1632 42.3693 77.8357 41.7192L77.8482 41.7467C77.3057 40.6142 76.4957 39.6842 75.4981 39.0116L75.4731 38.9966C73.9806 38.0366 72.1905 37.4066 70.2654 37.2491L70.2254 37.2466C69.5704 37.149 68.8154 37.094 68.0453 37.094C66.0427 37.094 64.1302 37.4716 62.3701 38.1591L62.4751 38.1216C62.8376 38.9691 63.0651 39.9517 63.0976 40.9817V40.9942C63.0576 43.1068 61.9226 44.9444 60.235 45.9694L60.2075 45.9844C59.4325 46.5344 58.5474 47.017 57.6049 47.392L57.5174 47.422C56.9449 47.702 56.2723 47.8645 55.5623 47.8645C55.4798 47.8645 55.3998 47.862 55.3198 47.857H55.3323C53.7506 47.5253 53.3756 46.1503 54.2073 43.7318C54.5698 42.6793 55.0773 41.7667 55.7198 40.9642L55.7048 40.9817C56.5274 39.9067 57.4299 38.9641 58.4274 38.1291L58.4549 38.1066L58.2099 37.7416C57.7524 36.9615 57.3324 36.054 56.9949 35.1065L56.9599 34.9915C56.7099 34.1581 56.5015 33.3672 56.3348 32.6189L56.2098 31.7438L54.9598 34.1164C53.8764 36.1165 52.8347 37.8657 51.8347 39.3641L51.4596 39.9892C51.8797 41.0092 52.1897 42.1918 52.3297 43.4268L52.3347 43.4893C52.3447 43.6068 52.3497 43.7468 52.3497 43.8868C52.3497 45.7819 51.4146 47.457 49.9796 48.4795L49.9621 48.492C49.277 48.9145 48.4595 49.3521 47.612 49.7421L47.462 49.8046C46.5794 50.1871 45.5569 50.4371 44.4843 50.4921H44.4618C44.3793 50.4971 44.2818 50.5021 44.1843 50.5021C43.5593 50.5021 42.9668 50.3596 42.4368 50.1071L42.4618 50.1171C42.1443 49.8446 41.9442 49.4446 41.9442 48.997C41.9442 48.7695 41.9967 48.552 42.0892 48.3595L42.0843 48.3695C43.0843 46.967 44.0693 45.7469 45.1169 44.5819L45.0844 44.6194L47.8345 41.1217L47.337 39.9967C46.937 39.2616 46.5544 38.3941 46.2469 37.4941L46.2119 37.3741C45.9619 36.5407 45.7536 35.7498 45.5869 35.0015L45.4619 34.1264L44.2118 37.1265C43.2135 39.4583 42.2968 41.4576 41.4617 43.1243C40.2167 45.6244 39.175 47.5411 38.3366 48.8745L38.0866 49.2496C37.0882 50.8313 36.1298 51.6222 35.2115 51.6222C34.2931 51.6222 33.6706 51.0388 33.3439 49.8721C33.1039 49.012 32.9639 48.0245 32.9639 47.0045C32.9639 46.9145 32.9639 46.8245 32.9664 46.7344V46.7469L33.2164 44.9969V45.1219C32.5497 46.7036 31.883 48.1612 31.2163 49.4946C30.7738 50.3596 30.3188 51.0971 29.8087 51.7922L29.8412 51.7447C29.3262 52.2847 28.6012 52.6197 27.7987 52.6197C27.7912 52.6197 27.7862 52.6197 27.7787 52.6197C27.7262 52.6247 27.6662 52.6247 27.6061 52.6247C26.9736 52.6247 26.3986 52.3847 25.9636 51.9922L25.9661 51.9947C25.0935 51.0996 24.446 49.9821 24.111 48.7345L24.0985 48.682C23.6885 47.5445 23.4535 46.2294 23.4535 44.8594C23.4535 44.6819 23.4585 44.5069 23.466 44.3343V44.3593C23.6635 42.3693 24.061 40.5467 24.6435 38.8091L24.591 38.9866L20.0933 41.6117V41.7367C20.7459 43.0918 21.1284 44.6819 21.1284 46.3619C21.1284 46.6694 21.1159 46.9745 21.0909 47.2745L21.0934 47.2345C20.9609 49.8096 20.1383 52.1672 18.8108 54.1598L18.8433 54.1098C17.4507 56.3198 15.4431 58.0274 13.058 59.015L12.9755 59.045C11.633 59.6475 10.0629 60 8.41285 60C7.36781 60 6.35276 59.86 5.39272 59.595L5.47273 59.6125C4.67769 59.345 4.02767 58.8149 3.61515 58.1299L3.60765 58.1149C3.02513 57.2699 2.65761 56.2373 2.60011 55.1248V55.1098C2.57261 54.8573 2.55761 54.5648 2.55761 54.2673C2.55761 52.9847 2.85012 51.7697 3.37264 50.6871L3.35014 50.7371C4.7852 48.2895 6.77028 46.3069 9.14038 44.9119L9.21538 44.8719C10.893 43.7093 12.8205 42.5818 14.8331 41.5992L15.0981 41.4817L15.7232 41.1067C14.9731 40.5234 13.5981 39.5233 11.598 38.1066C8.92537 36.3165 6.60277 34.5089 4.41268 32.5539L4.47519 32.6089C2.3576 30.7863 0.815034 28.3512 0.122505 25.5786L0.102504 25.4836C0.0375016 25.0985 0 24.656 0 24.206C0 22.796 0.362515 21.4709 0.997541 20.3183L0.977541 20.3608C2.3776 17.3507 4.31768 14.8131 6.69778 12.773L6.72778 12.748C9.30289 10.3154 12.218 8.19784 15.3831 6.48277L15.6006 6.37527C18.4283 4.7427 21.7309 3.22513 25.1735 2.00758L25.5986 1.87758C28.7962 0.707529 32.4889 0.0225009 36.339 0.0100004H36.344C36.519 0.00500021 36.7265 0 36.934 0C40.0367 0 42.9718 0.71753 45.5819 1.99508L45.4669 1.94258C47.717 2.96762 49.4021 4.8977 50.0771 7.2578L50.0921 7.31781C50.2996 8.12284 50.4171 9.04788 50.4171 10.0004C50.4171 11.5805 50.0896 13.0855 49.5021 14.4506L49.5296 14.3781C48.4595 16.9707 46.937 19.1783 45.0369 20.9959L45.0294 21.0034C43.1043 22.911 40.7967 24.436 38.2341 25.4536L38.0966 25.5011C35.4115 26.6536 32.2938 27.3786 29.0212 27.4986L28.9737 27.5011C28.4937 27.5561 27.9387 27.5862 27.3761 27.5862C25.8961 27.5862 24.4685 27.3736 23.1185 26.9761L23.226 27.0036C22.0184 26.6186 20.9759 26.0211 20.0908 25.2461L20.1008 25.2536C19.4808 24.7485 18.9758 24.126 18.6158 23.4185L18.6008 23.386C18.3508 22.7193 18.3299 22.3234 18.5383 22.1984C18.7466 22.0734 18.8925 22.0526 18.9758 22.1359L19.6008 22.7609C20.2983 23.4085 21.1309 23.9185 22.0509 24.2435L22.1009 24.2585C23.366 24.6985 24.826 24.9535 26.3436 24.9535C26.8311 24.9535 27.3111 24.9285 27.7837 24.876L27.7262 24.881C31.7713 24.4035 35.419 23.0235 38.5666 20.9484L38.4741 21.0059C41.1342 19.4233 43.2868 17.2482 44.8019 14.6556L44.8469 14.5706C45.5994 13.4656 46.0494 12.1005 46.0494 10.6304C46.0494 9.72791 45.8794 8.86287 45.5694 8.06784L45.5869 8.11534C44.6519 6.63778 43.1393 5.59773 41.3742 5.31022L41.3392 5.30522C39.9692 4.96771 38.3941 4.7727 36.7765 4.7727C35.474 4.7727 34.1989 4.8977 32.9664 5.13771L33.0914 5.11771C28.8737 5.87774 25.1035 7.1803 21.6259 8.97037L21.8534 8.86287C11.6063 14.0298 6.31526 19.3208 5.98025 24.736V24.8585C5.98025 27.0411 6.83778 29.0237 8.23534 30.4888L8.23284 30.4863C9.82541 32.2563 11.5855 33.8189 13.5081 35.169L13.6056 35.234C15.3581 36.544 16.9082 37.8966 18.3508 39.3566L18.3533 39.3616L18.6033 39.6117L26.6036 35.239C27.5161 33.9189 28.6137 32.8039 29.8737 31.9038L29.9137 31.8763C30.9138 31.0363 32.1838 30.4888 33.5764 30.3788L33.5989 30.3763C33.6489 30.3713 33.7064 30.3713 33.7664 30.3713C34.6989 30.3713 35.499 30.9338 35.844 31.7388L35.849 31.7538C36.1115 32.3413 36.264 33.0289 36.264 33.7514C36.264 33.9714 36.249 34.1889 36.2215 34.4039L36.224 34.3789L35.9815 35.6115L36.3565 35.3615C36.6165 35.164 36.944 35.0465 37.2991 35.0465C37.5241 35.0465 37.7366 35.094 37.9291 35.179L37.9191 35.174C38.3991 35.299 38.7466 35.729 38.7466 36.239C38.7466 36.3265 38.7366 36.4115 38.7166 36.494L38.7191 36.4865L38.3441 37.8616C37.5941 40.86 37.0949 43.026 36.8465 44.3593C36.7215 44.7919 36.6515 45.2894 36.6515 45.8044C36.6515 45.9119 36.654 46.0169 36.6615 46.1219V46.1069C36.7032 46.6069 36.7657 46.857 36.849 46.857C36.9324 46.857 37.0982 46.6069 37.3466 46.1069L37.7216 45.2319C37.8049 45.2319 37.8049 45.2736 37.7216 45.3569L39.0966 42.4818C42.3468 35.3181 44.096 31.318 44.3443 30.4813L45.0944 28.1087C45.1777 27.942 45.5111 27.7762 46.0944 27.6111C46.6869 27.4511 47.3645 27.3586 48.0645 27.3586C48.122 27.3586 48.1795 27.3586 48.2345 27.3611H48.227C49.3937 27.3611 49.9771 27.6528 49.9771 28.2362L49.8521 28.8612C49.5721 29.6312 49.2945 30.5938 49.0795 31.5788L49.052 31.7363C49.002 32.0588 48.972 32.4289 48.972 32.8089C48.972 33.3139 49.022 33.8064 49.1195 34.2839L49.112 34.2364L49.237 34.7339C49.4921 35.7765 49.8796 36.6915 50.3871 37.5266L50.3621 37.4841C51.3605 35.819 52.3188 34.1114 53.2372 32.3613C53.9622 31.1538 54.6373 29.7537 55.1798 28.2887L55.2373 28.1137C55.4248 27.1711 55.6398 26.3761 55.9023 25.6011L55.8623 25.7411C55.9457 25.4911 56.3015 25.3036 56.9299 25.1785C57.5249 25.0585 58.2074 24.991 58.9049 24.991H58.995H58.99C60.1567 24.991 60.7792 25.2827 60.8575 25.8661L60.6075 26.3636C60.31 27.2036 60.05 28.2137 59.875 29.2512L59.86 29.3637C59.8375 29.6062 59.8225 29.8862 59.8225 30.1713C59.8225 30.7688 59.8825 31.3538 59.995 31.9188L59.985 31.8613V32.3588C60.2725 33.4489 60.7 34.4064 61.26 35.274L61.235 35.234L61.6101 36.109C63.6976 35.084 66.1527 34.4839 68.7479 34.4839H68.8454H68.8404L68.8379 34.4914ZM15.2381 52.6247C16.9757 50.8296 18.0483 48.3795 18.0483 45.6794C18.0483 44.6369 17.8882 43.6318 17.5932 42.6868L17.6132 42.7568L15.6131 44.0068C13.5731 45.1694 11.808 46.4669 10.2104 47.942L10.2304 47.9245C9.01787 49.0395 8.12284 50.4821 7.68282 52.1097L7.66782 52.1722C7.2928 53.7139 7.48031 54.7139 8.23034 55.1723C8.68786 55.3823 9.22538 55.5048 9.78791 55.5048C10.4029 55.5048 10.9855 55.3598 11.498 55.0998L11.4755 55.1098C12.9605 54.5698 14.2181 53.7122 15.2181 52.6147L15.2256 52.6072L15.2381 52.6247ZM31.9813 41.1142C32.398 40.0308 32.8564 38.7391 33.3564 37.2391C34.0231 35.239 34.2523 34.0731 34.0439 33.7414C33.8356 33.4097 33.4397 33.3681 32.8564 33.6164C32.1613 33.9539 31.5788 34.4164 31.1138 34.984L31.1063 34.994C30.5863 35.6515 30.0913 36.3865 29.6512 37.159L29.6062 37.2441C29.1012 38.0716 28.6737 39.0241 28.3762 40.0342L28.3537 40.1192C27.8712 41.4267 27.5911 42.9393 27.5911 44.5144C27.5911 44.7269 27.5961 44.9369 27.6061 45.1469V45.1169C27.6895 46.7819 27.9562 47.6778 28.4062 47.8045C28.8562 47.9312 29.3771 47.327 29.9687 45.9919C30.5413 44.9594 31.0513 43.7593 31.4313 42.5018L31.4663 42.3668C31.7147 41.7767 31.8847 41.3592 31.9763 41.1142H31.9813ZM45.8469 47.7395C47.5795 46.962 48.7995 45.3244 48.9695 43.3868L48.972 43.3668V43.2418L47.597 44.9919L45.0994 47.742C45.0619 47.772 45.0369 47.817 45.0369 47.867C45.0369 47.917 45.0619 47.962 45.0969 47.992C45.1769 48.0737 45.4269 47.9903 45.8469 47.742V47.7395ZM56.5949 45.3644C58.4849 44.8244 59.845 43.1118 59.845 41.0842C59.845 41.0517 59.845 41.0192 59.845 40.9867V40.9917C59.82 40.4917 59.73 40.0217 59.5825 39.5766L59.5925 39.6142C58.6199 40.4792 57.8224 41.5142 57.2449 42.6818L57.2174 42.7393C56.4657 44.2377 56.2557 45.111 56.5873 45.3594L56.5949 45.3644Z" fill="#1C7E75"/>
</svg>
