<svg width="180" height="180" viewBox="0 0 180 180" fill="none" xmlns="http://www.w3.org/2000/svg">
<path d="M90 180C139.706 180 180 139.706 180 90C180 40.2944 139.706 0 90 0C40.2944 0 0 40.2944 0 90C0 139.706 40.2944 180 90 180Z" fill="#B9B9B9"/>
<path d="M89.8199 57.7548C103.148 57.7548 116.412 57.7548 129.741 57.7548C130.651 57.7548 131.951 57.2997 132.341 58.405C132.731 59.4452 131.561 60.0304 130.911 60.6806C118.037 73.359 105.099 85.9724 92.2905 98.7158C90.34 100.601 89.1697 100.536 87.2842 98.6508C74.5408 85.9724 61.6673 73.424 48.9239 60.8106C48.2087 60.0954 46.7783 59.5753 47.2984 58.3399C47.8186 57.1696 49.2489 57.7548 50.2892 57.6898C63.4228 57.7548 76.6213 57.7548 89.8199 57.7548Z" fill="#282C50"/>
<path d="M89.43 122.577C76.2315 122.577 63.0329 122.577 49.7693 122.577C48.664 122.577 47.1036 123.162 46.5185 121.862C46.0633 120.757 47.4937 120.042 48.1439 119.326C55.881 111.134 63.6181 102.942 71.2901 94.7498C72.5905 93.3194 73.3707 93.1243 74.8011 94.6197C78.9622 98.9109 83.3184 102.942 87.4795 107.233C89.1699 108.989 90.3403 108.924 92.0307 107.233C96.1918 103.007 100.548 98.9109 104.709 94.6847C105.879 93.4494 106.595 93.5144 107.765 94.7498C115.827 103.267 123.889 111.654 131.951 120.172C132.472 120.692 133.317 121.277 132.927 122.057C132.537 123.032 131.431 122.707 130.586 122.707C116.932 122.577 103.149 122.577 89.43 122.577Z" fill="#282C50"/>
<path d="M138.453 89.5483C138.453 97.5455 138.453 105.543 138.453 113.54C138.453 114.58 138.973 115.945 137.868 116.531C136.567 117.116 136.047 115.685 135.397 114.97C127.66 106.908 119.988 98.8458 112.251 90.8487C110.951 89.5483 110.625 88.8331 112.186 87.3377C120.053 79.7957 127.79 72.0586 135.657 64.3866C136.307 63.8014 136.762 62.501 137.998 63.1512C138.908 63.6063 138.518 64.7116 138.518 65.5569C138.453 73.554 138.453 81.5512 138.453 89.5483Z" fill="#282C50"/>
<path d="M41.122 89.5484C41.122 81.5512 41.122 73.5541 41.122 65.5569C41.122 64.6467 40.6668 63.4113 41.9022 63.0212C42.8774 62.7611 43.3976 63.7364 43.9827 64.3216C51.7848 71.9936 59.5219 79.6657 67.389 87.2727C68.6244 88.4431 68.6244 89.0932 67.454 90.3286C59.5219 98.5858 51.7198 106.973 43.7877 115.295C43.2025 115.88 42.7474 116.921 41.7721 116.531C40.7969 116.141 41.122 115.035 41.122 114.19C41.122 105.998 41.122 97.8056 41.122 89.5484Z" fill="#282C50"/>
</svg>
