<svg width="36" height="40" viewBox="0 0 36 40" fill="none" xmlns="http://www.w3.org/2000/svg">
<path d="M33.5199 7.74538C34.3956 4.60748 33.0821 1.17769 33.0091 0.958769C32.7902 0.447949 32.2794 0.0101035 31.6956 0.0101035C31.5496 0.0101035 28.1928 -0.281793 24.836 2.27231C22.2089 1.76149 19.217 1.61554 19.071 1.61554C18.998 1.61554 18.998 1.61554 18.9251 1.61554C18.7791 1.61554 15.7872 1.76149 13.1601 2.27231C9.80329 -0.281793 6.44648 0.0101035 6.30053 0.0101035C5.71673 0.0830777 5.20591 0.447949 4.98699 0.958769C4.91402 1.10472 3.52751 4.60748 4.47617 7.74538C2.79776 10.0806 1.48423 13.1455 2.65181 18.6185C3.74643 23.5808 7.83299 26.3538 12.0655 27.3025C11.7006 28.3241 11.5547 29.5647 11.4087 30.8782C9.65734 30.9512 8.56273 29.9296 7.03027 28.3241C5.71673 26.9376 4.25725 25.3322 1.8491 24.8214C1.04638 24.6024 0.243664 25.1133 0.0247408 25.9889C-0.121208 26.8646 0.389612 27.6674 1.2653 27.8133C2.65181 28.1052 3.60048 29.1268 4.76807 30.3674C6.30053 31.9728 8.05191 33.9431 11.1898 33.9431H11.2628C11.2628 35.6215 11.4087 37.227 11.4817 38.5405C11.5547 39.4162 12.2844 40 13.1601 39.927C14.0358 39.8541 14.6196 39.1243 14.5466 38.2486C14.1088 33.2864 14.4736 28.0322 15.2764 27.3025C15.8602 26.9376 16.225 26.2808 16.0061 25.5511C15.8602 24.8943 15.2764 24.3835 14.5466 24.3835C13.8899 24.3835 7.03027 24.0186 5.71673 17.9618C4.62212 12.9995 6.00863 10.8103 7.46812 9.05891C7.83299 8.62107 7.90596 7.9643 7.68704 7.3805C7.10324 6.13994 7.32217 4.38856 7.61406 3.22097C8.6357 3.36692 10.1682 3.80477 11.7736 5.19128C12.1385 5.55615 12.6493 5.62912 13.1601 5.55615C15.4223 4.97235 18.4872 4.8264 18.998 4.8264C19.4359 4.8264 22.5738 4.97235 24.836 5.55615C25.3468 5.7021 25.8576 5.55615 26.2225 5.19128C27.8279 3.80477 29.4334 3.36692 30.382 3.22097C30.6739 4.31559 30.8929 6.06697 30.3091 7.3805C30.0901 7.89132 30.1631 8.54809 30.528 9.05891C31.9875 10.8103 33.301 12.9995 32.2794 17.9618C30.9658 24.0186 24.1062 24.3835 23.3035 24.4565C22.5738 24.4565 21.99 24.9673 21.844 25.6241C21.6981 26.2808 21.99 27.0106 22.5738 27.3755C23.4495 28.1052 23.8144 33.2864 23.3765 38.3216C23.3035 39.1973 23.9603 39.927 24.763 40C24.836 40 24.836 40 24.909 40C25.7117 40 26.3685 39.4162 26.4414 38.6135C26.7333 35.4026 26.9522 30.4404 25.9306 27.3025C30.1631 26.4268 34.2497 23.5808 35.3443 18.6185C36.5119 13.1455 35.2713 10.0806 33.5199 7.74538Z" fill="current"/>
</svg>
