<svg width="40" height="42" viewBox="0 0 40 42" fill="none" xmlns="http://www.w3.org/2000/svg">
<path fill-rule="evenodd" stroke="none" clip-rule="evenodd" d="M0 4.03513C0 1.00279 3.22304 -0.943077 5.90641 0.469228L37.8471 17.2802C40.7176 18.7909 40.7176 22.9011 37.8471 24.412L5.90643 41.2228C3.22306 42.6352 0 40.6893 0 37.657V4.03513ZM35.9703 20.846L28.7478 17.0446L24.6297 20.846L28.7478 24.6473L35.9703 20.846ZM24.9642 26.6388L21.6593 23.5879L9.58613 34.7325L24.9642 26.6388ZM21.6593 18.104L24.9642 15.0533L9.58613 6.9596L21.6593 18.104ZM4.02963 7.31449L18.6888 20.846L4.02963 34.3775V7.31449Z" fill="current"/>
</svg>
