<svg width="180" height="180" viewBox="0 0 180 180" fill="none" xmlns="http://www.w3.org/2000/svg">
<path d="M90 180C139.706 180 180 139.706 180 90C180 40.2944 139.706 0 90 0C40.2944 0 0 40.2944 0 90C0 139.706 40.2944 180 90 180Z" fill="#B9B9B9"/>
<path d="M148.751 89.1668L91.6672 31.2501C90.4172 30.0001 88.7506 30.0001 87.5006 31.2501L66.2506 53.3335V41.6668C66.2506 40.0001 65.0006 38.7501 63.3339 38.7501H52.0839C50.4172 38.7501 49.1672 40.0001 49.1672 41.6668V70.4168L30.8339 89.1668C30.0006 90.0001 30.0006 91.2501 30.4172 92.0834C30.8339 92.9168 31.6672 93.7501 32.9172 93.7501H47.9172V146.25C47.9172 147.917 49.1672 149.167 50.8339 149.167H77.0839C78.7506 149.167 80.0006 147.917 80.0006 146.25V120.6C80.0006 115.183 84.5835 115.2 90.0001 115.2C95.4168 115.2 100.001 115.183 100.001 120.6V147.083C100.001 148.75 101.251 150 102.917 150H129.167C130.834 150 132.084 148.75 132.084 147.083V94.1668H147.084C148.334 94.1668 149.167 93.3335 149.584 92.5001C149.584 91.2501 149.584 90.0001 148.751 89.1668Z" fill="#282C50"/>
</svg>
