<svg width="100" height="100" viewBox="0 0 100 100" fill="none" xmlns="http://www.w3.org/2000/svg">
<path d="M3.33334 3.33333V0C2.40117 0 1.51158 0.390331 0.880402 1.0763C0.24922 1.76227 -0.0658877 2.6812 0.0115248 3.61015L3.33334 3.33333ZM96.6665 3.33333L99.9885 3.61015C100.066 2.6812 99.7505 1.76227 99.1192 1.0763C98.4885 0.390331 97.5985 0 96.6665 0V3.33333ZM89.9999 83.3332L91.0539 86.4952C92.3192 86.0739 93.2112 84.9385 93.3218 83.6099L89.9999 83.3332ZM49.9999 96.6665L48.9459 99.8285C49.6301 100.057 50.3698 100.057 51.054 99.8285L49.9999 96.6665ZM9.99999 83.3332L6.6782 83.6099C6.78893 84.9385 7.68093 86.0739 8.94593 86.4952L9.99999 83.3332ZM30 23.3333V20H26.6666V23.3333H30ZM30 43.3333H26.6666V46.6666H30V43.3333ZM69.9999 43.3333H73.3332V39.9999H69.9999V43.3333ZM69.9999 63.3332L71.0539 66.4955L73.3332 65.7358V63.3332H69.9999ZM49.9999 69.9999L48.9459 73.1619L49.9999 73.5132L51.054 73.1619L49.9999 69.9999ZM30 63.3332H26.6666V65.7358L28.9459 66.4955L30 63.3332ZM3.33334 6.66666H96.6665V0H3.33334V6.66666ZM93.3445 3.05651L86.6779 83.0565L93.3218 83.6099L99.9885 3.61015L93.3445 3.05651ZM88.9459 80.1712L48.9459 93.5045L51.054 99.8285L91.0539 86.4952L88.9459 80.1712ZM51.054 93.5045L11.0541 80.1712L8.94593 86.4952L48.9459 99.8285L51.054 93.5045ZM13.3218 83.0565L6.65515 3.05651L0.0115248 3.61015L6.6782 83.6099L13.3218 83.0565ZM73.3332 20H30V26.6666H73.3332V20ZM26.6666 23.3333V43.3333H33.3333V23.3333H26.6666ZM30 46.6666H69.9999V39.9999H30V46.6666ZM66.6666 43.3333V63.3332H73.3332V43.3333H66.6666ZM68.9459 60.171L48.9459 66.8379L51.054 73.1619L71.0539 66.4955L68.9459 60.171ZM51.054 66.8379L31.054 60.171L28.9459 66.4955L48.9459 73.1619L51.054 66.8379ZM33.3333 63.3332V53.3332H26.6666V63.3332H33.3333Z" fill="#1c7e75"/>
</svg>
