<svg width="101" height="100" viewBox="0 0 101 100" fill="none" xmlns="http://www.w3.org/2000/svg">
<path d="M12.841 0H87.173C94.2349 0 100.008 5.77513 100.008 12.837V87.169C100.008 94.2289 94.2349 100 87.173 100H12.841C5.77913 100 0 94.2285 0 87.169V12.837C0 5.77513 5.77913 0 12.841 0ZM72.8545 11.1066C70.375 11.1066 68.3525 13.1371 68.3525 15.6152V26.3874C68.3525 28.8666 70.375 30.8925 72.8545 30.8925H84.1564C86.6319 30.8925 88.6588 28.8666 88.6588 26.3874V15.6152C88.6588 13.1371 86.6319 11.1066 84.1564 11.1066H72.8545ZM88.7018 42.2887H79.9024C80.7368 45.0139 81.1892 47.8878 81.1892 50.8757C81.1892 67.5044 67.266 80.9915 50.098 80.9915C32.9343 80.9915 19.0109 67.5044 19.0109 50.8757C19.0109 47.8878 19.4676 45.0139 20.298 42.2887H11.1176V84.5361C11.1176 86.7239 12.904 88.5037 15.0899 88.5037H84.7311C86.919 88.5037 88.7018 86.7239 88.7018 84.5361V42.2887ZM50.0983 30.3244C39.0108 30.3244 30.0167 39.0345 30.0167 49.7886C30.0167 60.5318 39.0108 69.2485 50.0983 69.2485C61.1919 69.2485 70.1863 60.5318 70.1863 49.7886C70.1863 39.0341 61.1919 30.3244 50.0983 30.3244Z" fill="#B9B9B9"/>
</svg>
