<svg width="106" height="106" viewBox="0 0 106 106" fill="none" xmlns="http://www.w3.org/2000/svg">
<path d="M88.7143 56.5714V55.3809C88.7143 50.1211 84.45 45.8571 79.1907 45.8571H70.8571C64.9398 45.8571 60.1429 50.6541 60.1429 56.5714C60.1429 62.4888 64.9398 67.2857 70.8571 67.2857H78C83.9171 67.2857 88.7143 72.0829 88.7143 78C88.7143 83.9171 83.9171 88.7143 78 88.7143H70.8571C64.9398 88.7143 60.1429 83.9171 60.1429 78M45.8571 42.2857V78C45.8571 83.9171 41.0602 88.7143 35.1429 88.7143C29.2255 88.7143 24.4286 83.9171 24.4286 78M3 3H103V103H3V3Z" stroke="#1c7e75" stroke-width="5"/>
</svg>
