<svg width="101" height="100" viewBox="0 0 101 100" fill="none" xmlns="http://www.w3.org/2000/svg">
<path d="M23.3287 32.1316H3.20923C2.3163 32.1316 1.59277 32.8554 1.59277 33.7481V98.3831C1.59277 99.2761 2.3163 99.9996 3.20923 99.9996H23.3287C24.2216 99.9996 24.9451 99.2761 24.9451 98.3831V33.7481C24.9451 32.8554 24.2216 32.1316 23.3287 32.1316Z" fill="#B9B9B9"/>
<path d="M13.2763 0C5.95568 0 0 5.94922 0 13.2618C0 20.5775 5.95568 26.529 13.2763 26.529C20.5911 26.529 26.5419 20.5772 26.5419 13.2618C26.5423 5.94922 20.5911 0 13.2763 0Z" fill="#B9B9B9"/>
<path d="M74.5037 30.5251C66.4231 30.5251 60.4496 33.9989 56.8265 37.946V33.748C56.8265 32.8554 56.1029 32.1316 55.21 32.1316H35.9421C35.0492 32.1316 34.3257 32.8554 34.3257 33.748V98.3831C34.3257 99.2761 35.0492 99.9996 35.9421 99.9996H56.0176C56.9105 99.9996 57.6341 99.2761 57.6341 98.3831V66.4038C57.6341 55.6275 60.5611 51.4292 68.0732 51.4292C76.2544 51.4292 76.9045 58.1595 76.9045 66.9582V98.3835C76.9045 99.2764 77.628 99.9999 78.521 99.9999H98.6039C99.4968 99.9999 100.22 99.2764 100.22 98.3835V62.93C100.22 46.906 97.1649 30.5251 74.5037 30.5251Z" fill="#B9B9B9"/>
</svg>
