<svg width="116" height="100" viewBox="0 0 116 100" fill="none" xmlns="http://www.w3.org/2000/svg">
<path d="M67.9956 49.907C67.9956 44.3901 63.3829 39.917 57.6921 39.917C52.0021 39.917 47.3887 44.3901 47.3887 49.907C47.3887 55.4247 52.0021 59.8974 57.6921 59.8974C63.3829 59.8974 67.9956 55.4247 67.9956 49.907Z" fill="#1c7e75"/>
<path fill-rule="evenodd" clip-rule="evenodd" d="M91.1554 31.3604C93.3311 22.7876 96.0661 6.8903 86.4246 1.50061C76.8281 -3.86558 64.34 6.41703 57.7458 12.5891C51.1708 6.47853 38.3319 -3.76012 28.6986 1.64669C19.1058 7.03088 22.064 22.6646 24.2881 31.2912C15.3397 33.7554 0 39.0631 0 49.9073C0 60.7208 15.3237 66.4954 24.2192 68.9573C21.9868 77.6315 19.1768 93.0419 28.7818 98.4142C38.4512 103.82 51.25 93.825 57.9054 87.5854C64.5419 93.7938 76.91 103.854 86.5085 98.4669C96.1369 93.0627 93.6292 77.3784 91.405 68.7019C100.028 66.2346 115.385 60.5858 115.385 49.9073C115.385 39.1673 99.9627 33.8165 91.1554 31.3604ZM90.0623 64.1038C88.6019 59.6215 86.6308 54.855 84.2196 49.9311C86.5212 45.1235 88.4158 40.4185 89.8354 35.965C96.2919 37.78 110.456 41.9281 110.456 49.9073C110.456 57.9615 96.8638 62.1488 90.0623 64.1038ZM84.0385 94.3308C76.8769 98.35 66.2388 88.7292 61.3377 84.1573C64.5892 80.7092 67.8385 76.7008 71.0096 72.2496C76.5881 71.77 81.8577 70.9854 86.6369 69.9142C88.2023 76.0515 91.2315 90.2934 84.0385 94.3308ZM31.2447 94.2735C24.0824 90.2692 27.3561 76.5177 28.9983 70.1281C33.7244 71.1419 38.9562 71.8711 44.5477 72.3108C47.7396 76.6661 51.0831 80.6696 54.4523 84.1758C50.2896 88.08 38.4404 98.2962 31.2447 94.2735ZM4.92881 49.9073C4.92881 41.8231 19.008 37.705 25.6117 35.8946C27.0558 40.4481 28.9498 45.2092 31.2355 50.0238C28.9202 54.91 26.9991 59.7465 25.5417 64.3538C19.245 62.6061 4.92881 57.9965 4.92881 49.9073ZM31.1681 5.78284C38.3596 1.74677 49.5181 11.5763 54.2919 16.0005C50.94 19.4905 47.6273 23.4638 44.4627 27.7942C39.0362 28.2819 33.8413 29.065 29.0657 30.1142C27.274 23.1566 23.9843 9.81457 31.1681 5.78284ZM74.5358 32.9888C78.2173 33.4392 81.7446 34.0385 85.0565 34.7715C84.0623 37.8615 82.8231 41.0927 81.3635 44.405C79.2477 40.5127 76.9765 36.6985 74.5358 32.9888ZM57.7473 19.4158C60.0208 21.8037 62.2977 24.4704 64.5377 27.3635C59.9942 27.155 55.4435 27.1542 50.9 27.3604C53.1419 24.4941 55.4385 21.8315 57.7473 19.4158ZM34.0635 44.4015C32.628 41.1008 31.3999 37.8554 30.397 34.7211C33.6892 34.0069 37.2 33.4231 40.8577 32.98C38.41 36.6815 36.1427 40.4942 34.0635 44.4015ZM40.9627 67.1758C37.1842 66.7669 33.6202 66.2127 30.3291 65.5181C31.3478 62.3288 32.603 59.0135 34.0691 55.6415C36.1769 59.5896 38.4788 63.4392 40.9627 67.1758ZM57.8838 80.7365C55.5477 78.2923 53.2173 75.5888 50.9415 72.6811C55.5108 72.855 60.0888 72.8554 64.6577 72.6577C62.4108 75.6185 60.1419 78.3258 57.8838 80.7365ZM81.4104 55.47C82.9527 58.8785 84.2527 62.1758 85.2854 65.3111C81.9396 66.0515 78.3277 66.6477 74.5219 67.0904C76.9808 63.3104 79.2881 59.4369 81.4104 55.47ZM68.2588 67.6696C61.2696 68.1538 54.2369 68.1485 47.2454 67.7092C43.2727 62.0827 39.7362 56.1654 36.6835 50.0223C39.7215 43.8919 43.2323 37.9861 47.1862 32.3685C54.1827 31.8558 61.2223 31.8542 68.2188 32.3715C72.1388 37.9888 75.6442 43.8792 78.7527 49.9542C75.6812 56.0815 72.1519 61.9992 68.2588 67.6696ZM83.9627 5.64076C91.1562 9.66361 87.9542 23.951 86.3827 30.1638C81.5958 29.0927 76.3973 28.2958 70.955 27.8004C67.7842 23.4232 64.4992 19.443 61.2015 15.998C66.0365 11.4785 76.8388 1.65726 83.9627 5.64076Z" fill="#1c7e75"/>
</svg>
